# xmcd CD database file
#
# Track frame offsets:
#	150
#	19777
#	36097
#	43121
#	71419
#	85883
#	124427
#	146621
#	178395
#	209120
#	215609
#
# Disc length: 3902 seconds
#
# Revision: 1
# Processed by: cddbd v1.5.2PL0 Copyright (c) Steve Scherf et al.
# Submitted via: CDex 1.51
#
DISCID=af0f3c0b
DTITLE=Ramiro Flores - Flores
DYEAR=2008
DGENRE=Jazz
TTITLE0=Feraldi
TTITLE1=Hay
TTITLE2=El serrucho (I)
TTITLE3=Rodrigo
TTITLE4=Barcos
TTITLE5=***
TTITLE6=L'aprés-midi d'un Curupi
TTITLE7=Dial
TTITLE8=Zap
TTITLE9=El serrucho (II)
TTITLE10=Otro
EXTD=YEAR: 2008
EXTT0=
EXTT1=
EXTT2=
EXTT3=
EXTT4=
EXTT5=
EXTT6=
EXTT7=
EXTT8=
EXTT9=
EXTT10=
PLAYORDER=
